<svg xmlns="http://www.w3.org/2000/svg" width="429.719" height="357.342" viewBox="0 0 429.719 357.342">
  <path id="Path_18364" data-name="Path 18364" d="M425.519,317.63C417.262,309.5,317.205,270.8,299.05,263.5c-18.06-7.173-25.265-27.05-25.265-27.05s-8.129,4.5-8.129-8.129c0-12.641,8.129,8.129,16.259-40.615,0,0,22.555-6.328,18.076-58.66h-5.42s13.549-55.95,0-74.887c-13.6-18.937-18.921-31.561-48.777-40.615C215.986,4.5,226.825,6.3,205.178,7.228c-21.679.909-39.723,12.641-39.723,18.937,0,0-13.549.909-18.937,6.328-5.42,5.42-14.442,30.669-14.442,36.981s4.511,48.777,9.022,57.767l-5.372,1.753c-4.511,52.347,18.044,58.692,18.044,58.692,8.129,48.745,16.259,27.975,16.259,40.615,0,12.625-8.129,8.13-8.129,8.13s-7.221,19.861-25.265,27.05C118.591,270.7,18.424,309.5,10.278,317.614c-8.129,8.289-7.221,46.163-7.221,46.163h429.65s1-37.906-7.221-46.178ZM235.751,156.316c-6.344-3.985-12.481-19.288-12.481-26.142v-3.762c-1.674-1.69-9.15-1.53-10.68,0v3.762c0,6.854-6.137,22.157-12.481,26.142-6.376,3.985-25.664,3.778-33.219-3.762-7.54-7.54-8.353-26.508-10.249-28.373-1.881-1.913-2.949-2.949-2.949-2.949l.478-6.6a129.269,129.269,0,0,1,27.066-3.3c13.677,0,28.74,8.018,28.74,8.018,3.7-1.18,12.513-1.323,15.892,0,0,0,15.063-8,28.74-8a129.179,129.179,0,0,1,27.1,3.316l.446,6.6-2.949,2.949c-1.881,1.881-2.71,20.85-10.25,28.373-7.492,7.54-26.811,7.763-33.187,3.762Z" transform="translate(-3.027 -6.436)" fill="#707070"/>
</svg>
